<?xml version="1.0" standalone="no"?>
<!DOCTYPE svg PUBLIC "-//W3C//DTD SVG 20010904//EN"
 "http://www.w3.org/TR/2001/REC-SVG-20010904/DTD/svg10.dtd">
<svg version="1.0" xmlns="http://www.w3.org/2000/svg"
 width="512.000000pt" height="512.000000pt" viewBox="0 0 512.000000 512.000000"
 preserveAspectRatio="xMidYMid meet">

<g transform="translate(0.000000,512.000000) scale(0.100000,-0.100000)"
fill="#000000" stroke="none">
<path d="M1252 5109 c-197 -38 -350 -220 -353 -417 -1 -71 17 -110 68 -149 48
-36 135 -40 180 -7 39 29 72 80 78 123 10 63 19 83 48 105 28 21 37 21 573 24
l544 3 0 -221 0 -220 -289 0 c-312 0 -375 -7 -510 -54 -321 -112 -561 -391
-632 -731 -18 -85 -19 -154 -19 -1170 0 -1173 -2 -1128 56 -1236 55 -103 174
-195 278 -214 20 -4 36 -11 36 -16 0 -4 -75 -151 -168 -326 l-167 -318 0 -65
c1 -136 93 -228 215 -217 102 9 158 54 221 178 l39 79 1098 0 1098 0 33 -67
c43 -88 76 -129 125 -158 114 -67 251 -26 311 94 12 25 16 51 13 95 -4 56 -17
85 -171 377 -92 174 -167 320 -167 326 0 5 22 15 50 22 63 16 155 75 204 132
48 55 93 148 106 221 7 37 10 424 7 1155 l-3 1098 -22 80 c-98 351 -377 611
-737 686 -76 16 -136 19 -377 19 l-288 0 0 225 0 226 546 -3 546 -3 34 -37
c21 -24 34 -48 34 -65 0 -16 9 -46 19 -68 47 -104 161 -135 248 -69 47 36 65
77 64 146 -3 202 -156 379 -361 418 -65 12 -2545 12 -2608 -1z m2136 -1291
c157 -57 283 -169 352 -313 58 -120 62 -156 58 -541 l-3 -341 -29 -41 c-18
-26 -47 -51 -79 -67 l-51 -25 -1070 0 c-1014 0 -1073 1 -1111 19 -43 19 -100
78 -116 117 -15 40 -1 666 17 752 44 212 221 395 435 452 70 18 108 19 799 17
l725 -2 73 -27z m-1624 -1865 c71 -23 157 -109 185 -186 85 -232 -114 -470
-356 -426 -104 19 -180 76 -231 174 -23 43 -27 62 -27 140 0 78 4 97 27 140
80 153 232 212 402 158z m1806 -5 c177 -54 273 -277 190 -442 -59 -115 -162
-180 -290 -180 -129 0 -234 67 -288 184 -118 252 119 519 388 438z m-177
-1208 l88 -170 -926 0 -927 0 89 170 88 170 750 0 750 0 88 -170z"/>
</g>
</svg>
